<?xml version="1.0" encoding="utf-8"?>
<svg version="1.1" xmlns:xlink="http://www.w3.org/1999/xlink" width="70px" height="70px" xmlns="http://www.w3.org/2000/svg">
  <g transform="matrix(1 0 0 1 -643 -270 )">
    <path d="M 678 270  C 697.6 270  713 285.4  713 305  C 713 324.6  697.6 340  678 340  C 658.4 340  643 324.6  643 305  C 643 285.4  658.4 270  678 270  Z " fill-rule="nonzero" fill="#ffffff" stroke="none" />
    <path d="M 678 270.5  C 697.32 270.5  712.5 285.68  712.5 305  C 712.5 324.32  697.32 339.5  678 339.5  C 658.68 339.5  643.5 324.32  643.5 305  C 643.5 285.68  658.68 270.5  678 270.5  Z " stroke-width="1" stroke="#797979" fill="none" />
  </g>
</svg>