<?xml version="1.0" encoding="utf-8"?>
<svg version="1.1" xmlns:xlink="http://www.w3.org/1999/xlink" width="29px" height="35px" xmlns="http://www.w3.org/2000/svg">
  <g transform="matrix(1 0 0 1 -663 -286 )">
    <path d="M 24.1666666666667 10  C 24.1666666666667 11.9140625  23.6694878472222 13.6848958333333  22.6751302083333 15.3125  C 23.2667100694444 15.4947916666667  23.8299696180556 15.7421875  24.3649088541667 16.0546875  C 24.8998480902778 16.3671875  25.4599609375 16.8424479166667  26.0452473958333 17.48046875  C 26.6305338541667 18.1184895833333  27.130859375 18.8704427083333  27.5462239583333 19.736328125  C 27.9615885416667 20.6022135416667  28.3077256944444 21.7220052083333  28.5846354166667 23.095703125  C 28.8615451388889 24.4694010416667  29 26.0091145833333  29 27.71484375  C 29 29.7200520833333  28.3706597222222 31.435546875  27.1119791666667 32.861328125  C 25.8532986111111 34.287109375  24.3365885416667 35  22.5618489583333 35  L 6.43815104166667 35  C 4.66341145833333 35  3.14670138888889 34.287109375  1.88802083333333 32.861328125  C 0.629340277777778 31.435546875  0 29.7200520833333  0 27.71484375  C 0 26.0091145833333  0.138454861111111 24.4694010416667  0.415364583333333 23.095703125  C 0.692274305555556 21.7220052083333  1.03841145833333 20.6022135416667  1.45377604166667 19.736328125  C 1.869140625 18.8704427083333  2.36946614583333 18.1184895833333  2.95475260416667 17.48046875  C 3.5400390625 16.8424479166667  4.10015190972222 16.3671875  4.63509114583333 16.0546875  C 5.17003038194444 15.7421875  5.73328993055556 15.4947916666667  6.32486979166667 15.3125  C 5.33051215277778 13.6848958333333  4.83333333333333 11.9140625  4.83333333333333 10  C 4.83333333333333 8.64583333333333  5.08821614583333 7.353515625  5.59798177083333 6.123046875  C 6.10774739583333 4.892578125  6.796875 3.828125  7.66536458333333 2.9296875  C 8.53385416666667 2.03125  9.56282552083333 1.318359375  10.7522786458333 0.791015624999999  C 11.9417317708333 0.263671874999998  13.1909722222222 0  14.5 0  C 15.8090277777778 0  17.0582682291667 0.263671874999998  18.2477213541667 0.791015624999999  C 19.4371744791667 1.318359375  20.4661458333333 2.03125  21.3346354166667 2.9296875  C 22.203125 3.828125  22.8922526041667 4.892578125  23.4020182291667 6.123046875  C 23.9117838541667 7.353515625  24.1666666666667 8.64583333333333  24.1666666666667 10  Z M 19.6259765625 4.697265625  C 18.2099609375 3.232421875  16.5013020833333 2.5  14.5 2.5  C 12.4986979166667 2.5  10.7900390625 3.232421875  9.3740234375 4.697265625  C 7.9580078125 6.162109375  7.25 7.9296875  7.25 10  C 7.25 12.0703125  7.9580078125 13.837890625  9.3740234375 15.302734375  C 10.7900390625 16.767578125  12.4986979166667 17.5  14.5 17.5  C 16.5013020833333 17.5  18.2099609375 16.767578125  19.6259765625 15.302734375  C 21.0419921875 13.837890625  21.75 12.0703125  21.75 10  C 21.75 7.9296875  21.0419921875 6.162109375  19.6259765625 4.697265625  Z M 6.43815104166667 32  L 22.5618489583333 32  C 23.6694878472222 32.5  24.6166449652778 32.0345052083333  25.4033203125 31.103515625  C 26.1899956597222 30.1725260416667  26.5833333333333 29.04296875  26.5833333333333 27.71484375  C 26.5833333333333 24.6028645833333  26.0893012152778 22.1484375  25.1012369791667 20.3515625  C 24.1131727430556 18.5546875  22.6940104166667 17.6106770833333  20.84375 17.51953125  C 19.0186631944444 19.1731770833333  16.9040798611111 20  14.5 20  C 12.0959201388889 20  9.98133680555556 19.1731770833333  8.15625 17.51953125  C 6.30598958333333 17.6106770833333  4.88682725694444 18.5546875  3.89876302083333 20.3515625  C 2.91069878472222 22.1484375  2.41666666666667 24.6028645833333  2.41666666666667 27.71484375  C 2.41666666666667 29.04296875  2.81000434027778 30.1725260416667  3.5966796875 31.103515625  C 4.38335503472222 32.0345052083333  5.33051215277778 32.5  6.43815104166667 32  Z " fill-rule="nonzero" fill="#000000" stroke="none" transform="matrix(1 0 0 1 663 286 )" />
  </g>
</svg>