<?xml version="1.0" encoding="utf-8"?>
<svg version="1.1" xmlns:xlink="http://www.w3.org/1999/xlink" width="62px" height="32px" xmlns="http://www.w3.org/2000/svg">
  <g transform="matrix(1 0 0 1 -214 -267 )">
    <path d="M 215 271  A 3 3 0 0 1 218 268 L 272 268  A 3 3 0 0 1 275 271 L 275 295  A 3 3 0 0 1 272 298 L 218 298  A 3 3 0 0 1 215 295 L 215 271  Z " fill-rule="nonzero" fill="#e6a23c" stroke="none" fill-opacity="0.0980392156862745" />
    <path d="M 214.5 271  A 3.5 3.5 0 0 1 218 267.5 L 272 267.5  A 3.5 3.5 0 0 1 275.5 271 L 275.5 295  A 3.5 3.5 0 0 1 272 298.5 L 218 298.5  A 3.5 3.5 0 0 1 214.5 295 L 214.5 271  Z " stroke-width="1" stroke="#e6a23c" fill="none" stroke-opacity="0.2" />
  </g>
</svg>