<?xml version="1.0" encoding="utf-8"?>
<svg version="1.1" xmlns:xlink="http://www.w3.org/1999/xlink" width="62px" height="32px" xmlns="http://www.w3.org/2000/svg">
  <g transform="matrix(1 0 0 1 -214 -310 )">
    <path d="M 215 314  A 3 3 0 0 1 218 311 L 272 311  A 3 3 0 0 1 275 314 L 275 338  A 3 3 0 0 1 272 341 L 218 341  A 3 3 0 0 1 215 338 L 215 314  Z " fill-rule="nonzero" fill="#f56c6c" stroke="none" fill-opacity="0.0980392156862745" />
    <path d="M 214.5 314  A 3.5 3.5 0 0 1 218 310.5 L 272 310.5  A 3.5 3.5 0 0 1 275.5 314 L 275.5 338  A 3.5 3.5 0 0 1 272 341.5 L 218 341.5  A 3.5 3.5 0 0 1 214.5 338 L 214.5 314  Z " stroke-width="1" stroke="#f56c6c" fill="none" stroke-opacity="0.2" />
  </g>
</svg>