<?xml version="1.0" encoding="utf-8"?>
<svg version="1.1" xmlns:xlink="http://www.w3.org/1999/xlink" width="62px" height="32px" xmlns="http://www.w3.org/2000/svg">
  <g transform="matrix(1 0 0 1 -214 -358 )">
    <path d="M 215 362  A 3 3 0 0 1 218 359 L 272 359  A 3 3 0 0 1 275 362 L 275 386  A 3 3 0 0 1 272 389 L 218 389  A 3 3 0 0 1 215 386 L 215 362  Z " fill-rule="nonzero" fill="#909399" stroke="none" fill-opacity="0.0980392156862745" />
    <path d="M 214.5 362  A 3.5 3.5 0 0 1 218 358.5 L 272 358.5  A 3.5 3.5 0 0 1 275.5 362 L 275.5 386  A 3.5 3.5 0 0 1 272 389.5 L 218 389.5  A 3.5 3.5 0 0 1 214.5 386 L 214.5 362  Z " stroke-width="1" stroke="#909399" fill="none" stroke-opacity="0.2" />
  </g>
</svg>