<?xml version="1.0" encoding="utf-8"?>
<svg version="1.1" xmlns:xlink="http://www.w3.org/1999/xlink" width="90px" height="32px" xmlns="http://www.w3.org/2000/svg">
  <g transform="matrix(1 0 0 1 -229 -357 )">
    <path d="M 229.5 361  A 3.5 3.5 0 0 1 233 357.5 L 315 357.5  A 3.5 3.5 0 0 1 318.5 361 L 318.5 385  A 3.5 3.5 0 0 1 315 388.5 L 233 388.5  A 3.5 3.5 0 0 1 229.5 385 L 229.5 361  Z " fill-rule="nonzero" fill="#0099ff" stroke="none" fill-opacity="0.0980392156862745" />
    <path d="M 229.5 361  A 3.5 3.5 0 0 1 233 357.5 L 315 357.5  A 3.5 3.5 0 0 1 318.5 361 L 318.5 385  A 3.5 3.5 0 0 1 315 388.5 L 233 388.5  A 3.5 3.5 0 0 1 229.5 385 L 229.5 361  Z " stroke-width="1" stroke="#a7d2f9" fill="none" />
  </g>
</svg>