<?xml version="1.0" encoding="utf-8"?>
<svg version="1.1" xmlns:xlink="http://www.w3.org/1999/xlink" width="76px" height="32px" xmlns="http://www.w3.org/2000/svg">
  <g transform="matrix(1 0 0 1 -229 -220 )">
    <path d="M 230 224  A 3 3 0 0 1 233 221 L 301 221  A 3 3 0 0 1 304 224 L 304 248  A 3 3 0 0 1 301 251 L 233 251  A 3 3 0 0 1 230 248 L 230 224  Z " fill-rule="nonzero" fill="#67c23a" stroke="none" fill-opacity="0.0980392156862745" />
    <path d="M 229.5 224  A 3.5 3.5 0 0 1 233 220.5 L 301 220.5  A 3.5 3.5 0 0 1 304.5 224 L 304.5 248  A 3.5 3.5 0 0 1 301 251.5 L 233 251.5  A 3.5 3.5 0 0 1 229.5 248 L 229.5 224  Z " stroke-width="1" stroke="#67c23a" fill="none" stroke-opacity="0.2" />
  </g>
</svg>