<?xml version="1.0" encoding="utf-8"?>
<svg version="1.1" xmlns:xlink="http://www.w3.org/1999/xlink" width="76px" height="32px" xmlns="http://www.w3.org/2000/svg">
  <g transform="matrix(1 0 0 1 -229 -220 )">
    <path d="M 229.5 224  A 3.5 3.5 0 0 1 233 220.5 L 301 220.5  A 3.5 3.5 0 0 1 304.5 224 L 304.5 248  A 3.5 3.5 0 0 1 301 251.5 L 233 251.5  A 3.5 3.5 0 0 1 229.5 248 L 229.5 224  Z " fill-rule="nonzero" fill="#0099ff" stroke="none" fill-opacity="0.0980392156862745" />
    <path d="M 229.5 224  A 3.5 3.5 0 0 1 233 220.5 L 301 220.5  A 3.5 3.5 0 0 1 304.5 224 L 304.5 248  A 3.5 3.5 0 0 1 301 251.5 L 233 251.5  A 3.5 3.5 0 0 1 229.5 248 L 229.5 224  Z " stroke-width="1" stroke="#a7d2f9" fill="none" />
  </g>
</svg>