<?xml version="1.0" encoding="utf-8"?>
<svg version="1.1" xmlns:xlink="http://www.w3.org/1999/xlink" width="20px" height="20px" xmlns="http://www.w3.org/2000/svg">
  <g transform="matrix(1 0 0 1 -41 -640 )">
    <path d="M 3.75 10  L 6.25 10  L 6.25 16.6666666666667  L 3.75 16.6666666666667  L 3.75 10  Z M 7.5 3.33333333333333  L 10 3.33333333333333  L 10 16.6666666666667  L 7.5 16.6666666666667  L 7.5 3.33333333333333  Z M 1.25 18  L 20 18  L 20 20  L 0 20  L 0 0  L 1.25 0  L 1.25 18  Z M 11 6.66666666666667  L 13.75 6.66666666666667  L 13.75 16.6666666666667  L 11 16.6666666666667  L 11 6.66666666666667  Z M 15 1.66666666666667  L 17.5 1.66666666666667  L 17.5 16.6666666666667  L 15 16.6666666666667  L 15 1.66666666666667  Z " fill-rule="nonzero" fill="#000000" stroke="none" transform="matrix(1 0 0 1 41 640 )" />
  </g>
</svg>