<?xml version="1.0" encoding="utf-8"?>
<svg version="1.1" xmlns:xlink="http://www.w3.org/1999/xlink" width="20px" height="20px" xmlns="http://www.w3.org/2000/svg">
  <g transform="matrix(1 0 0 1 -137 -640 )">
    <path d="M 15.7692307692308 10.5022321428571  C 15.7692307692308 10.5989583333333  15.7331730769231 10.6845238095238  15.6610576923077 10.7589285714286  L 9.50721153846154 16.4732142857143  C 9.42708333333333 16.5401785714286  9.3349358974359 16.5736607142857  9.23076923076923 16.5736607142857  C 9.12660256410257 16.5736607142857  9.03445512820513 16.5401785714286  8.95432692307692 16.4732142857143  L 5.49278846153846 13.2589285714286  C 5.42067307692308 13.1845238095238  5.38461538461538 13.0989583333333  5.38461538461538 13.0022321428571  C 5.38461538461538 12.905505952381  5.42067307692308 12.8236607142857  5.49278846153846 12.7566964285714  L 6.04567307692308 12.2433035714286  C 6.11778846153846 12.1763392857143  6.20592948717949 12.1428571428571  6.31009615384615 12.1428571428571  C 6.41426282051282 12.1428571428571  6.50641025641026 12.1763392857143  6.58653846153846 12.2433035714286  L 9.23076923076923 14.6986607142857  L 14.5673076923077 9.74330357142857  C 14.6474358974359 9.67633928571429  14.7395833333333 9.64285714285714  14.84375 9.64285714285714  C 14.9479166666667 9.64285714285714  15.0360576923077 9.67633928571429  15.1081730769231 9.74330357142857  L 15.6610576923077 10.2566964285714  C 15.7331730769231 10.3236607142857  15.7692307692308 10.405505952381  15.7692307692308 10.5022321428571  Z M 1.53846153846154 7.14285714285714  L 1.53846153846154 18.5714285714286  L 18.4615384615385 18.5714285714286  L 18.4615384615385 7.14285714285714  L 1.53846153846154 7.14285714285714  Z M 6.04567307692308 5.25669642857143  C 6.11778846153846 5.18973214285714  6.15384615384615 5.10416666666667  6.15384615384615 5  L 6.15384615384615 1.78571428571429  C 6.15384615384615 1.68154761904762  6.11778846153846 1.59598214285714  6.04567307692308 1.52901785714286  C 5.97355769230769 1.46205357142857  5.88141025641026 1.42857142857143  5.76923076923077 1.42857142857143  L 5 1.42857142857143  C 4.88782051282051 1.42857142857143  4.79567307692308 1.46205357142857  4.72355769230769 1.52901785714286  C 4.65144230769231 1.59598214285714  4.61538461538462 1.68154761904762  4.61538461538462 1.78571428571429  L 4.61538461538462 5  C 4.61538461538462 5.10416666666667  4.65144230769231 5.18973214285714  4.72355769230769 5.25669642857143  C 4.79567307692308 5.32366071428571  4.88782051282051 5.35714285714286  5 5.35714285714286  L 5.76923076923077 5.35714285714286  C 5.88141025641026 5.35714285714286  5.97355769230769 5.32366071428571  6.04567307692308 5.25669642857143  Z M 15.2764423076923 5.25669642857143  C 15.3485576923077 5.18973214285714  15.3846153846154 5.10416666666667  15.3846153846154 5  L 15.3846153846154 1.78571428571429  C 15.3846153846154 1.68154761904762  15.3485576923077 1.59598214285714  15.2764423076923 1.52901785714286  C 15.2043269230769 1.46205357142857  15.1121794871795 1.42857142857143  15 1.42857142857143  L 14.2307692307692 1.42857142857143  C 14.1185897435897 1.42857142857143  14.0264423076923 1.46205357142857  13.9543269230769 1.52901785714286  C 13.8822115384615 1.59598214285714  13.8461538461538 1.68154761904762  13.8461538461538 1.78571428571429  L 13.8461538461538 5  C 13.8461538461538 5.10416666666667  13.8822115384615 5.18973214285714  13.9543269230769 5.25669642857143  C 14.0264423076923 5.32366071428571  14.1185897435897 5.35714285714286  14.2307692307692 5.35714285714286  L 15 5.35714285714286  C 15.1121794871795 5.35714285714286  15.2043269230769 5.32366071428571  15.2764423076923 5.25669642857143  Z M 19.5432692307692 3.28125  C 19.8477564102564 3.5639880952381  20 3.89880952380952  20 4.28571428571429  L 20 18.5714285714286  C 20 18.9583333333333  19.8477564102564 19.2931547619048  19.5432692307692 19.5758928571429  C 19.2387820512821 19.858630952381  18.8782051282051 20  18.4615384615385 20  L 1.53846153846154 20  C 1.12179487179487 20  0.761217948717949 19.858630952381  0.456730769230769 19.5758928571429  C 0.15224358974359 19.2931547619048  0 18.9583333333333  0 18.5714285714286  L 0 4.28571428571429  C 0 3.89880952380952  0.15224358974359 3.5639880952381  0.456730769230769 3.28125  C 0.761217948717949 2.9985119047619  1.12179487179487 2.85714285714286  1.53846153846154 2.85714285714286  L 3.07692307692308 2.85714285714286  L 3.07692307692308 1.78571428571429  C 3.07692307692308 1.29464285714286  3.26522435897436 0.874255952380951  3.64182692307692 0.524553571428572  C 4.01842948717949 0.174851190476191  4.47115384615385 0  5 0  L 5.76923076923077 0  C 6.29807692307692 0  6.75080128205128 0.174851190476191  7.12740384615385 0.524553571428572  C 7.50400641025641 0.874255952380951  7.69230769230769 1.29464285714286  7.69230769230769 1.78571428571429  L 7.69230769230769 2.85714285714286  L 12.3076923076923 2.85714285714286  L 12.3076923076923 1.78571428571429  C 12.3076923076923 1.29464285714286  12.4959935897436 0.874255952380951  12.8725961538462 0.524553571428572  C 13.2491987179487 0.174851190476191  13.7019230769231 0  14.2307692307692 0  L 15 0  C 15.5288461538462 0  15.9815705128205 0.174851190476191  16.3581730769231 0.524553571428572  C 16.7347756410256 0.874255952380951  16.9230769230769 1.29464285714286  16.9230769230769 1.78571428571429  L 16.9230769230769 2.85714285714286  L 18.4615384615385 2.85714285714286  C 18.8782051282051 2.85714285714286  19.2387820512821 2.9985119047619  19.5432692307692 3.28125  Z " fill-rule="nonzero" fill="#000000" stroke="none" transform="matrix(1 0 0 1 137 640 )" />
  </g>
</svg>