<?xml version="1.0" encoding="utf-8"?>
<svg version="1.1" xmlns:xlink="http://www.w3.org/1999/xlink" width="23px" height="22px" xmlns="http://www.w3.org/2000/svg">
  <g transform="matrix(1 0 0 1 -256 -640 )">
    <path d="M 7.73297991071429 7.87044270833333  C 8.05385044642857 8.228515625  8.21428571428572 8.66059027777778  8.21428571428572 9.16666666666667  C 8.21428571428572 9.67274305555555  8.05385044642857 10.1048177083333  7.73297991071429 10.462890625  C 7.412109375 10.8209635416667  7.02492559523809 11  6.57142857142857 11  C 6.11793154761905 11  5.73074776785714 10.8209635416667  5.40987723214286 10.462890625  C 5.08900669642857 10.1048177083333  4.92857142857143 9.67274305555555  4.92857142857143 9.16666666666667  C 4.92857142857143 8.66059027777778  5.08900669642857 8.228515625  5.40987723214286 7.87044270833333  C 5.73074776785714 7.51236979166667  6.11793154761905 7.33333333333333  6.57142857142857 7.33333333333333  C 7.02492559523809 7.33333333333333  7.412109375 7.51236979166667  7.73297991071429 7.87044270833333  Z M 12.6615513392857 7.87044270833333  C 12.982421875 8.228515625  13.1428571428571 8.66059027777778  13.1428571428571 9.16666666666667  C 13.1428571428571 9.67274305555555  12.982421875 10.1048177083333  12.6615513392857 10.462890625  C 12.3406808035714 10.8209635416667  11.9534970238095 11  11.5 11  C 11.0465029761905 11  10.6593191964286 10.8209635416667  10.3384486607143 10.462890625  C 10.017578125 10.1048177083333  9.85714285714286 9.67274305555555  9.85714285714286 9.16666666666667  C 9.85714285714286 8.66059027777778  10.017578125 8.228515625  10.3384486607143 7.87044270833333  C 10.6593191964286 7.51236979166667  11.0465029761905 7.33333333333333  11.5 7.33333333333333  C 11.9534970238095 7.33333333333333  12.3406808035714 7.51236979166667  12.6615513392857 7.87044270833333  Z M 17.5901227678571 7.87044270833333  C 17.9109933035714 8.228515625  18.0714285714286 8.66059027777778  18.0714285714286 9.16666666666667  C 18.0714285714286 9.67274305555555  17.9109933035714 10.1048177083333  17.5901227678571 10.462890625  C 17.2692522321429 10.8209635416667  16.882068452381 11  16.4285714285714 11  C 15.9750744047619 11  15.587890625 10.8209635416667  15.2670200892857 10.462890625  C 14.9461495535714 10.1048177083333  14.7857142857143 9.67274305555555  14.7857142857143 9.16666666666667  C 14.7857142857143 8.66059027777778  14.9461495535714 8.228515625  15.2670200892857 7.87044270833333  C 15.587890625 7.51236979166667  15.9750744047619 7.33333333333333  16.4285714285714 7.33333333333333  C 16.882068452381 7.33333333333333  17.2692522321429 7.51236979166667  17.5901227678571 7.87044270833333  Z M 16.396484375 2.82877604166667  C 14.877697172619 2.16514756944444  13.2455357142857 1.83333333333333  11.5 1.83333333333333  C 9.75446428571428 1.83333333333333  8.12230282738095 2.16514756944444  6.603515625 2.82877604166667  C 5.08472842261905 3.49240451388889  3.87825520833333 4.38758680555555  2.98409598214286 5.51432291666667  C 2.08993675595238 6.64105902777778  1.64285714285714 7.85850694444444  1.64285714285714 9.16666666666667  C 1.64285714285714 10.2361111111111  1.9487537202381 11.2554253472222  2.560546875 12.224609375  C 3.1723400297619 13.1937934027778  4.03441220238095 14.0316840277778  5.14676339285714 14.73828125  L 6.26339285714286 15.4544270833333  L 5.91685267857143 16.8294270833333  C 5.71149553571429 17.6983506944444  5.41201636904762 18.51953125  5.01841517857143 19.29296875  C 6.31901041666667 18.69140625  7.49553571428571 17.875  8.54799107142857 16.84375  L 9.09988839285714 16.2994791666667  L 9.83147321428572 16.3854166666667  C 10.421875 16.4618055555556  10.9780505952381 16.5  11.5 16.5  C 13.2455357142857 16.5  14.877697172619 16.1681857638889  16.396484375 15.5045572916667  C 17.915271577381 14.8409288194444  19.1217447916667 13.9457465277778  20.0159040178571 12.8190104166667  C 20.9100632440476 11.6922743055556  21.3571428571429 10.4748263888889  21.3571428571429 9.16666666666667  C 21.3571428571429 7.85850694444444  20.9100632440476 6.64105902777778  20.0159040178571 5.51432291666667  C 19.1217447916667 4.38758680555555  17.915271577381 3.49240451388889  16.396484375 2.82877604166667  Z M 22.0887276785714 5.607421875  C 22.6962425595238 6.73893229166667  23 7.92534722222222  23 9.16666666666667  C 23 10.828125  22.4866071428571 12.3630642361111  21.4598214285714 13.771484375  C 20.4330357142857 15.1799045138889  19.038318452381 16.2923177083333  17.2756696428571 17.1087239583333  C 15.5130208333333 17.9251302083333  13.5877976190476 18.3333333333333  11.5 18.3333333333333  C 10.9010416666667 18.3333333333333  10.2806919642857 18.2951388888889  9.63895089285714 18.21875  C 7.94475446428571 19.8897569444444  5.97674851190476 21.0451388888889  3.73493303571429 21.6848958333333  C 3.31566220238095 21.8185763888889  2.82793898809524 21.9236111111111  2.27176339285714 22  L 2.20758928571429 22  C 2.07924107142857 22  1.96372767857143 21.9498697916667  1.86104910714286 21.849609375  C 1.75837053571429 21.7493489583333  1.68991815476191 21.6180555555556  1.65569196428571 21.4557291666667  L 1.65569196428571 21.44140625  C 1.63002232142857 21.4032118055556  1.62788318452381 21.3459201388889  1.64927455357143 21.26953125  C 1.67066592261905 21.1931423611111  1.6792224702381 21.1453993055556  1.67494419642857 21.1263020833333  C 1.67066592261905 21.1072048611111  1.68991815476191 21.0618489583333  1.73270089285714 20.990234375  L 1.80970982142857 20.861328125  C 1.80970982142857 20.861328125  1.83965773809524 20.8207465277778  1.89955357142857 20.7395833333333  C 1.95944940476191 20.6584201388889  1.9936755952381 20.6154513888889  2.00223214285714 20.6106770833333  C 2.06212797619048 20.5342881944444  2.19475446428571 20.3695746527778  2.40011160714286 20.1165364583333  C 2.60546875 19.8634982638889  2.75306919642857 19.6820746527778  2.84291294642857 19.572265625  C 2.93275669642857 19.4624565972222  3.06538318452381 19.2738715277778  3.24079241071429 19.0065104166667  C 3.41620163690476 18.7391493055556  3.55524553571429 18.4956597222222  3.65792410714286 18.2760416666667  C 3.76060267857143 18.0564236111111  3.87611607142857 17.7747395833333  4.00446428571429 17.4309895833333  C 4.1328125 17.0872395833333  4.24404761904762 16.7243923611111  4.33816964285714 16.3424479166667  C 2.99479166666667 15.4926215277778  1.93591889880952 14.4422743055556  1.16155133928571 13.19140625  C 0.387183779761905 11.9405381944444  0 10.5989583333333  0 9.16666666666667  C 0 7.92534722222222  0.30375744047619 6.73893229166667  0.911272321428571 5.607421875  C 1.51878720238095 4.47591145833333  2.3359375 3.49956597222222  3.36272321428571 2.67838541666667  C 4.38950892857143 1.85720486111111  5.61309523809524 1.20551215277777  7.03348214285714 0.723307291666666  C 8.45386904761905 0.241102430555554  9.94270833333333 0  11.5 0  C 13.0572916666667 0  14.546130952381 0.241102430555554  15.9665178571429 0.723307291666666  C 17.3869047619048 1.20551215277777  18.6104910714286 1.85720486111111  19.6372767857143 2.67838541666667  C 20.6640625 3.49956597222222  21.4812127976191 4.47591145833333  22.0887276785714 5.607421875  Z " fill-rule="nonzero" fill="#000000" stroke="none" transform="matrix(1 0 0 1 256 640 )" />
  </g>
</svg>